<svg width="11" height="14" viewBox="0 0 11 14" fill="none" xmlns="http://www.w3.org/2000/svg">
<path d="M-5.45343e-05 5.09091C-5.45192e-05 4.91856 0.062919 4.76941 0.188866 4.64347L4.64341 0.18892C4.76936 0.0629732 4.91851 -2.2171e-07 5.09085 -2.06643e-07C5.2632 -1.91576e-07 5.41235 0.0629733 5.5383 0.18892L9.99284 4.64347C10.1188 4.76941 10.1818 4.91856 10.1818 5.09091C10.1818 5.26326 10.1188 5.41241 9.99284 5.53835C9.8669 5.6643 9.71775 5.72727 9.5454 5.72727L0.636309 5.72727C0.463961 5.72727 0.314813 5.6643 0.188866 5.53835C0.0629189 5.4124 -5.45493e-05 5.26326 -5.45343e-05 5.09091ZM-5.4868e-05 8.90909C-5.4853e-05 8.73674 0.0629186 8.58759 0.188866 8.46165C0.314813 8.3357 0.46396 8.27273 0.636309 8.27273L9.5454 8.27273C9.71775 8.27273 9.8669 8.3357 9.99284 8.46165C10.1188 8.58759 10.1818 8.73674 10.1818 8.90909C10.1818 9.08144 10.1188 9.23059 9.99284 9.35653L5.5383 13.8111C5.41235 13.937 5.2632 14 5.09085 14C4.91851 14 4.76936 13.937 4.64341 13.8111L0.188866 9.35653C0.0629186 9.23059 -5.48831e-05 9.08144 -5.4868e-05 8.90909Z" fill="#6465E5"/>
<path d="M0.00176284 8.91C0.00176285 8.73768 0.0647251 8.58856 0.19065 8.46263C0.316574 8.33671 0.465695 8.27375 0.638013 8.27375L9.54551 8.27375C9.71783 8.27375 9.86695 8.33671 9.99288 8.46263C10.1188 8.58856 10.1818 8.73768 10.1818 8.91C10.1818 9.08232 10.1188 9.23144 9.99288 9.35736L5.53913 13.8111C5.4132 13.937 5.26408 14 5.09176 14C4.91944 14 4.77032 13.937 4.6444 13.8111L0.19065 9.35736C0.064725 9.23144 0.00176282 9.08232 0.00176284 8.91Z" fill="#BABBBD"/>
</svg>