<svg width="11" height="14" viewBox="0 0 11 14" fill="none" xmlns="http://www.w3.org/2000/svg">
<path d="M10.1818 8.90909C10.1818 9.08144 10.1188 9.23059 9.9929 9.35653L5.53835 13.8111C5.41241 13.937 5.26326 14 5.09091 14C4.91856 14 4.76941 13.937 4.64347 13.8111L0.18892 9.35653C0.0629735 9.23059 0 9.08144 0 8.90909C0 8.73674 0.0629735 8.58759 0.18892 8.46165C0.314867 8.3357 0.464015 8.27273 0.636364 8.27273H9.54545C9.7178 8.27273 9.86695 8.3357 9.9929 8.46165C10.1188 8.58759 10.1818 8.73674 10.1818 8.90909ZM10.1818 5.09091C10.1818 5.26326 10.1188 5.41241 9.9929 5.53835C9.86695 5.6643 9.7178 5.72727 9.54545 5.72727H0.636364C0.464015 5.72727 0.314867 5.6643 0.18892 5.53835C0.0629735 5.41241 0 5.26326 0 5.09091C0 4.91856 0.0629735 4.76941 0.18892 4.64347L4.64347 0.18892C4.76941 0.0629735 4.91856 0 5.09091 0C5.26326 0 5.41241 0.0629735 5.53835 0.18892L9.9929 4.64347C10.1188 4.76941 10.1818 4.91856 10.1818 5.09091Z" fill="#6465E5"/>
<path d="M10.18 5.09C10.18 5.26232 10.117 5.41144 9.99111 5.53737C9.86519 5.66329 9.71607 5.72625 9.54375 5.72625H0.63625C0.463932 5.72625 0.314811 5.66329 0.188887 5.53737C0.0629622 5.41144 0 5.26232 0 5.09C0 4.91768 0.0629622 4.76856 0.188887 4.64264L4.64264 0.188887C4.76856 0.0629623 4.91768 0 5.09 0C5.26232 0 5.41144 0.0629623 5.53736 0.188887L9.99111 4.64264C10.117 4.76856 10.18 4.91768 10.18 5.09Z" fill="#BABBBD"/>
</svg>
