<svg width="11" height="7" viewBox="0 0 11 7" fill="none" xmlns="http://www.w3.org/2000/svg">
<path d="M3.63636 6.5C3.63636 6.36739 3.68425 6.24021 3.7695 6.14645C3.85474 6.05268 3.97036 6 4.09091 6H6.81818C6.93873 6 7.05435 6.05268 7.13959 6.14645C7.22484 6.24021 7.27273 6.36739 7.27273 6.5C7.27273 6.63261 7.22484 6.75979 7.13959 6.85355C7.05435 6.94732 6.93873 7 6.81818 7H4.09091C3.97036 7 3.85474 6.94732 3.7695 6.85355C3.68425 6.75979 3.63636 6.63261 3.63636 6.5ZM1.81818 3.5C1.81818 3.36739 1.86607 3.24021 1.95131 3.14645C2.03656 3.05268 2.15217 3 2.27273 3H8.63636C8.75692 3 8.87253 3.05268 8.95778 3.14645C9.04302 3.24021 9.09091 3.36739 9.09091 3.5C9.09091 3.63261 9.04302 3.75979 8.95778 3.85355C8.87253 3.94732 8.75692 4 8.63636 4H2.27273C2.15217 4 2.03656 3.94732 1.95131 3.85355C1.86607 3.75979 1.81818 3.63261 1.81818 3.5ZM0 0.5C0 0.367392 0.0478896 0.240215 0.133133 0.146447C0.218377 0.0526785 0.333992 0 0.454545 0H10.4545C10.5751 0 10.6907 0.0526785 10.776 0.146447C10.8612 0.240215 10.9091 0.367392 10.9091 0.5C10.9091 0.632608 10.8612 0.759785 10.776 0.853553C10.6907 0.947321 10.5751 1 10.4545 1H0.454545C0.333992 1 0.218377 0.947321 0.133133 0.853553C0.0478896 0.759785 0 0.632608 0 0.5Z" fill="currentColor"/>
</svg>
