<svg width="12" height="12" viewBox="0 0 12 12" fill="none" xmlns="http://www.w3.org/2000/svg">
<path d="M0.276608 3.89928L5.25161 6.77372C5.33564 6.82224 5.43096 6.84778 5.52799 6.84778C5.62503 6.84778 5.72035 6.82224 5.80438 6.77372L10.7794 3.89928C10.8629 3.85105 10.9324 3.78179 10.9809 3.69839C11.0294 3.61499 11.0552 3.52036 11.0558 3.42389C11.0562 3.32648 11.0308 3.23071 10.9823 3.14625C10.9337 3.0618 10.8637 2.99168 10.7794 2.94297L5.80438 0.0740582C5.72035 0.0255418 5.62503 0 5.52799 0C5.43096 0 5.33564 0.0255418 5.25161 0.0740582L0.276608 2.94297C0.192252 2.99168 0.122262 3.0618 0.0737266 3.14625C0.025191 3.23071 -0.000167412 3.32648 0.000219293 3.42389C0.000801572 3.52036 0.0266193 3.61499 0.0751066 3.69839C0.123594 3.78179 0.193062 3.85105 0.276608 3.89928V3.89928ZM5.52799 1.21278L9.39744 3.42389L5.52799 5.635L1.65855 3.42389L5.52799 1.21278ZM10.2266 5.17619L5.52799 7.84611L0.829386 5.15408C0.766295 5.11753 0.696597 5.09383 0.624305 5.08433C0.552014 5.07483 0.478558 5.07973 0.408167 5.09874C0.337776 5.11775 0.271842 5.1505 0.214161 5.1951C0.156481 5.2397 0.108193 5.29527 0.0720804 5.35861C1.34511e-05 5.48554 -0.0189282 5.63582 0.0193886 5.77666C0.0577054 5.9175 0.15017 6.03747 0.276608 6.11039L5.25161 8.98483C5.33564 9.03335 5.43096 9.05889 5.52799 9.05889C5.62503 9.05889 5.72035 9.03335 5.80438 8.98483L10.7794 6.11039C10.9058 6.03747 10.9983 5.9175 11.0366 5.77666C11.0749 5.63582 11.056 5.48554 10.9839 5.35861C10.9478 5.29527 10.8995 5.2397 10.8418 5.1951C10.7841 5.1505 10.7182 5.11775 10.6478 5.09874C10.5774 5.07973 10.504 5.07483 10.4317 5.08433C10.3594 5.09383 10.2897 5.11753 10.2266 5.15408V5.17619ZM10.2266 7.3873L5.52799 10.0572L0.829386 7.36519C0.766295 7.32864 0.696597 7.30494 0.624305 7.29544C0.552014 7.28594 0.478558 7.29084 0.408167 7.30985C0.337776 7.32886 0.271842 7.36161 0.214161 7.40621C0.156481 7.45081 0.108193 7.50638 0.0720804 7.56972C1.34511e-05 7.69665 -0.0189282 7.84693 0.0193886 7.98777C0.0577054 8.12861 0.15017 8.24858 0.276608 8.3215L5.25161 11.1959C5.33564 11.2445 5.43096 11.27 5.52799 11.27C5.62503 11.27 5.72035 11.2445 5.80438 11.1959L10.7794 8.3215C10.9058 8.24858 10.9983 8.12861 11.0366 7.98777C11.0749 7.84693 11.056 7.69665 10.9839 7.56972C10.9478 7.50638 10.8995 7.45081 10.8418 7.40621C10.7841 7.36161 10.7182 7.32886 10.6478 7.30985C10.5774 7.29084 10.504 7.28594 10.4317 7.29544C10.3594 7.30494 10.2897 7.32864 10.2266 7.36519V7.3873Z" fill="currentColor"/>
</svg>
