<svg width="12" height="12" viewBox="0 0 12 12" fill="none" xmlns="http://www.w3.org/2000/svg">
<g clip-path="url(#clip0_191_28)">
<path d="M6 0C4.81332 0 3.65328 0.351894 2.66658 1.01118C1.67989 1.67047 0.910851 2.60754 0.456726 3.7039C0.0025997 4.80026 -0.11622 6.00666 0.115291 7.17054C0.346802 8.33443 0.918247 9.40353 1.75736 10.2426C2.59648 11.0818 3.66558 11.6532 4.82946 11.8847C5.99335 12.1162 7.19975 11.9974 8.2961 11.5433C9.39246 11.0892 10.3295 10.3201 10.9888 9.33342C11.6481 8.34673 12 7.18669 12 6C12 4.4087 11.3679 2.88258 10.2426 1.75736C9.11743 0.632141 7.5913 0 6 0V0ZM1.2 6C1.20236 4.93463 1.5591 3.90031 2.214 3.06L8.94 9.786C8.23085 10.3355 7.3819 10.6752 6.48945 10.7667C5.597 10.8582 4.69677 10.6977 3.89089 10.3036C3.08501 9.90936 2.40572 9.2972 1.9301 8.53653C1.45447 7.77586 1.20155 6.89713 1.2 6V6ZM9.786 8.94L3.06 2.214C3.9841 1.51165 5.1314 1.16794 6.28945 1.24652C7.44751 1.3251 8.53786 1.82065 9.35861 2.6414C10.1794 3.46215 10.6749 4.5525 10.7535 5.71055C10.8321 6.8686 10.4884 8.0159 9.786 8.94V8.94Z" fill="#303030"/>
</g>
<defs>
<clipPath id="clip0_191_28">
<rect width="12" height="12" fill="white"/>
</clipPath>
</defs>
</svg>
