<svg width="21" height="5" viewBox="0 0 21 5" fill="none" xmlns="http://www.w3.org/2000/svg">
<path d="M2.50008 4.83332C1.88124 4.83332 1.28775 4.58749 0.850166 4.14991C0.412581 3.71232 0.166748 3.11883 0.166748 2.49999C0.166748 1.88115 0.412581 1.28766 0.850166 0.850074C1.28775 0.412489 1.88124 0.166656 2.50008 0.166656C3.11892 0.166656 3.71241 0.412489 4.15 0.850074C4.58758 1.28766 4.83341 1.88115 4.83341 2.49999C4.83341 3.11883 4.58758 3.71232 4.15 4.14991C3.71241 4.58749 3.11892 4.83332 2.50008 4.83332ZM10.2779 4.83332C9.65902 4.83332 9.06553 4.58749 8.62794 4.14991C8.19036 3.71232 7.94453 3.11883 7.94453 2.49999C7.94453 1.88115 8.19036 1.28766 8.62794 0.850074C9.06553 0.412489 9.65902 0.166656 10.2779 0.166656C10.8967 0.166656 11.4902 0.412489 11.9278 0.850074C12.3654 1.28766 12.6112 1.88115 12.6112 2.49999C12.6112 3.11883 12.3654 3.71232 11.9278 4.14991C11.4902 4.58749 10.8967 4.83332 10.2779 4.83332ZM18.0556 4.83332C17.4368 4.83332 16.8433 4.58749 16.4057 4.14991C15.9681 3.71232 15.7223 3.11883 15.7223 2.49999C15.7223 1.88115 15.9681 1.28766 16.4057 0.850074C16.8433 0.412489 17.4368 0.166656 18.0556 0.166656C18.6745 0.166656 19.268 0.412489 19.7056 0.850074C20.1431 1.28766 20.389 1.88115 20.389 2.49999C20.389 3.11883 20.1431 3.71232 19.7056 4.14991C19.268 4.58749 18.6745 4.83332 18.0556 4.83332Z" fill="currentColor"/>
</svg>
