<svg width="13" height="9" viewBox="0 0 13 9" fill="none" xmlns="http://www.w3.org/2000/svg">
<path d="M6.09192 8.5292C5.09285 8.54139 4.10413 8.32573 3.2007 7.89869C2.50056 7.55705 1.87185 7.08526 1.34814 6.50851C0.793443 5.91217 0.356675 5.2162 0.0609192 4.45736L0 4.26485L0.0639652 4.07235C0.359907 3.31416 0.795738 2.61836 1.34875 2.0212C1.87226 1.44449 2.50076 0.972695 3.2007 0.631022C4.10395 0.203727 5.09277 -0.0119131 6.09192 0.000507683C7.091 -0.0116762 8.07972 0.203978 8.98315 0.631022C9.68372 0.97217 10.3118 1.44429 10.8357 2.0212C11.3913 2.61699 11.8287 3.31269 12.1229 4.07235L12.1838 4.26485L12.1199 4.45736C11.6533 5.67189 10.8249 6.71378 9.74679 7.44205C8.66866 8.17033 7.39282 8.54983 6.09192 8.5292V8.5292ZM6.09192 1.21889C5.07845 1.18713 4.0788 1.46053 3.22254 2.00363C2.36628 2.54673 1.6929 3.33451 1.28966 4.26485C1.69283 5.19525 2.3662 5.98307 3.22247 6.52619C4.07875 7.0693 5.07843 7.34266 6.09192 7.31082C7.10538 7.34249 8.105 7.06907 8.96124 6.52597C9.81748 5.98288 10.4909 5.19515 10.8942 4.26485C10.4915 3.33411 9.81824 2.54595 8.96185 2.00277C8.10547 1.45958 7.10553 1.18647 6.09192 1.21889V1.21889ZM6.09192 6.09243C5.66576 6.09525 5.25182 5.95003 4.92083 5.68157C4.58984 5.41311 4.36231 5.03806 4.27712 4.62049C4.19192 4.20291 4.25434 3.76871 4.45372 3.39204C4.65309 3.01537 4.97705 2.71961 5.37027 2.55525C5.76348 2.3909 6.20155 2.36817 6.60967 2.49092C7.01779 2.61368 7.37063 2.87432 7.60793 3.22832C7.84523 3.58232 7.95227 4.00773 7.91076 4.43188C7.86926 4.85603 7.68179 5.25262 7.38037 5.55391C7.21187 5.72439 7.01123 5.85976 6.79008 5.9522C6.56892 6.04464 6.33162 6.0923 6.09192 6.09243V6.09243Z" fill="currentColor"/>
</svg>
