<svg width="7" height="11" viewBox="0 0 7 11" fill="none" xmlns="http://www.w3.org/2000/svg">
<path fill-rule="evenodd" clip-rule="evenodd" d="M0.175426 2.91706C0.121274 2.96752 0.07784 3.02836 0.0477151 3.09597C0.0175902 3.16358 0.00139153 3.23657 8.5777e-05 3.31058C-0.00121998 3.38458 0.0123939 3.45809 0.040115 3.52672C0.067836 3.59535 0.109096 3.6577 0.161435 3.71004C0.213773 3.76238 0.276117 3.80364 0.344748 3.83136C0.413379 3.85908 0.48689 3.87269 0.560896 3.87139C0.634902 3.87008 0.707887 3.85388 0.775497 3.82376C0.843107 3.79363 0.903957 3.7502 0.954416 3.69605L3.32078 1.32968L5.68715 3.69605C5.79164 3.7934 5.92983 3.84641 6.07262 3.84389C6.21541 3.84137 6.35165 3.78352 6.45264 3.68254C6.55362 3.58156 6.61147 3.44532 6.61399 3.30253C6.61651 3.15973 6.5635 3.02154 6.46614 2.91706L3.71028 0.161192C3.60693 0.0579756 3.46685 0 3.32078 0C3.17472 0 3.03463 0.0579756 2.93129 0.161192L0.175426 2.91706V2.91706ZM6.46614 7.98294C6.5635 7.87846 6.61651 7.74027 6.61399 7.59747C6.61147 7.45468 6.55362 7.31844 6.45264 7.21746C6.35165 7.11647 6.21541 7.05863 6.07262 7.05611C5.92983 7.05359 5.79164 7.10659 5.68715 7.20395L3.32078 9.57032L0.954416 7.20395C0.849933 7.10659 0.711738 7.05359 0.568947 7.05611C0.426155 7.05863 0.289917 7.11647 0.188932 7.21746C0.0879478 7.31844 0.0301025 7.45468 0.0275831 7.59747C0.0250637 7.74027 0.078067 7.87846 0.175426 7.98294L2.93129 10.7388C3.03463 10.842 3.17472 10.9 3.32078 10.9C3.46685 10.9 3.60693 10.842 3.71028 10.7388L6.46614 7.98294V7.98294Z" fill="currentColor"/>
</svg>
