<svg width="14" height="14" viewBox="0 0 14 14" fill="none" xmlns="http://www.w3.org/2000/svg">
<path d="M4.104 1.75H3.055C3.16851 1.25278 3.44751 0.808854 3.84629 0.49092C4.24507 0.172986 4.73999 -0.000104472 5.25 4.73073e-08H10.75C11.1768 4.73073e-08 11.5994 0.0840637 11.9937 0.247392C12.388 0.410719 12.7463 0.650113 13.0481 0.951903C13.3499 1.25369 13.5893 1.61197 13.7526 2.00628C13.9159 2.40059 14 2.8232 14 3.25V8.75C13.9999 9.26006 13.8267 9.75498 13.5085 10.1537C13.1904 10.5524 12.7463 10.8312 12.249 10.9445V9.8965C12.4722 9.7993 12.6622 9.63903 12.7956 9.43535C12.9291 9.23168 13.0001 8.99348 13 8.75V3.25C13 2.65326 12.7629 2.08097 12.341 1.65901C11.919 1.23705 11.3467 1 10.75 1H5.25C5.00672 0.999931 4.7687 1.07086 4.56514 1.20408C4.36158 1.3373 4.20131 1.52703 4.104 1.75V1.75ZM2.25 2.5C1.65326 2.5 1.08097 2.73705 0.65901 3.15901C0.237053 3.58097 0 4.15326 0 4.75V11.75C0 12.3467 0.237053 12.919 0.65901 13.341C1.08097 13.7629 1.65326 14 2.25 14H9.25C9.84674 14 10.419 13.7629 10.841 13.341C11.2629 12.919 11.5 12.3467 11.5 11.75V4.75C11.5 4.15326 11.2629 3.58097 10.841 3.15901C10.419 2.73705 9.84674 2.5 9.25 2.5H2.25ZM1 4.75C1 4.41848 1.1317 4.10054 1.36612 3.86612C1.60054 3.6317 1.91848 3.5 2.25 3.5H9.25C9.58152 3.5 9.89946 3.6317 10.1339 3.86612C10.3683 4.10054 10.5 4.41848 10.5 4.75V11.75C10.5 12.0815 10.3683 12.3995 10.1339 12.6339C9.89946 12.8683 9.58152 13 9.25 13H2.25C1.91848 13 1.60054 12.8683 1.36612 12.6339C1.1317 12.3995 1 12.0815 1 11.75V4.75Z" fill="#303030"/>
</svg>