<svg width="15" height="14" viewBox="0 0 15 14" fill="none" xmlns="http://www.w3.org/2000/svg">
<g clip-path="url(#clip0_191_22)">
<path d="M2.79997 0.933333V5.2136L9.3333 11.7469L13.6136 7.46667L7.08024 0.933333H2.79997ZM1.86664 0.933333C1.86664 0.685798 1.96497 0.448401 2.14001 0.273367C2.31504 0.098333 2.55244 0 2.79997 0H7.08024C7.32775 5.28616e-05 7.56511 0.0984206 7.74011 0.273467L14.2734 6.8068C14.4484 6.98183 14.5467 7.21918 14.5467 7.46667C14.5467 7.71415 14.4484 7.95151 14.2734 8.12653L9.99317 12.4068C9.81815 12.5818 9.58079 12.6801 9.3333 12.6801C9.08582 12.6801 8.84846 12.5818 8.67344 12.4068L2.1401 5.87347C1.96506 5.69847 1.86669 5.46112 1.86664 5.2136V0.933333Z" fill="#303030"/>
<path d="M5.13333 3.73332C5.00957 3.73332 4.89087 3.68415 4.80335 3.59664C4.71583 3.50912 4.66667 3.39042 4.66667 3.26665C4.66667 3.14288 4.71583 3.02419 4.80335 2.93667C4.89087 2.84915 5.00957 2.79999 5.13333 2.79999C5.2571 2.79999 5.3758 2.84915 5.46332 2.93667C5.55083 3.02419 5.6 3.14288 5.6 3.26665C5.6 3.39042 5.55083 3.50912 5.46332 3.59664C5.3758 3.68415 5.2571 3.73332 5.13333 3.73332ZM5.13333 4.66665C5.50464 4.66665 5.86073 4.51915 6.12328 4.2566C6.38583 3.99405 6.53333 3.63796 6.53333 3.26665C6.53333 2.89535 6.38583 2.53925 6.12328 2.2767C5.86073 2.01415 5.50464 1.86665 5.13333 1.86665C4.76203 1.86665 4.40593 2.01415 4.14338 2.2767C3.88083 2.53925 3.73333 2.89535 3.73333 3.26665C3.73333 3.63796 3.88083 3.99405 4.14338 4.2566C4.40593 4.51915 4.76203 4.66665 5.13333 4.66665V4.66665ZM0.933333 5.68025C0.933386 5.92777 1.03175 6.16513 1.2068 6.34012L8.16667 13.3L8.12653 13.3401C7.95151 13.5151 7.71415 13.6134 7.46667 13.6134C7.21918 13.6134 6.98183 13.5151 6.8068 13.3401L0.273467 6.80679C0.0984206 6.63179 5.28616e-05 6.39443 0 6.14692L0 1.86665C0 1.61912 0.0983331 1.38172 0.273367 1.20669C0.448401 1.03165 0.685798 0.933319 0.933333 0.933319V5.68025Z" fill="#303030"/>
</g>
<defs>
<clipPath id="clip0_191_22">
<rect width="14.9333" height="14" fill="white"/>
</clipPath>
</defs>
</svg>