<svg width="10" height="6" viewBox="0 0 10 6" fill="none" className="option__icon">
  <path d="M3.11688 5.57143C3.11688 5.45776 3.15793 5.34876 3.231 5.26838C3.30406 5.18801 3.40316 5.14286 3.50649 5.14286H5.84416C5.94749 5.14286 6.04659 5.18801 6.11965 5.26838C6.19272 5.34876 6.23377 5.45776 6.23377 5.57143C6.23377 5.68509 6.19272 5.7941 6.11965 5.87447C6.04659 5.95485 5.94749 6 5.84416 6H3.50649C3.40316 6 3.30406 5.95485 3.231 5.87447C3.15793 5.7941 3.11688 5.68509 3.11688 5.57143ZM1.55844 3C1.55844 2.88634 1.59949 2.77733 1.67256 2.69695C1.74562 2.61658 1.84472 2.57143 1.94805 2.57143H7.4026C7.50593 2.57143 7.60503 2.61658 7.67809 2.69695C7.75116 2.77733 7.79221 2.88634 7.79221 3C7.79221 3.11366 7.75116 3.22267 7.67809 3.30305C7.60503 3.38342 7.50593 3.42857 7.4026 3.42857H1.94805C1.84472 3.42857 1.74562 3.38342 1.67256 3.30305C1.59949 3.22267 1.55844 3.11366 1.55844 3ZM0 0.428571C0 0.314907 0.0410482 0.205898 0.114114 0.125526C0.18718 0.045153 0.286279 0 0.38961 0H8.96104C9.06437 0 9.16347 0.045153 9.23654 0.125526C9.3096 0.205898 9.35065 0.314907 9.35065 0.428571C9.35065 0.542236 9.3096 0.651244 9.23654 0.731617C9.16347 0.81199 9.06437 0.857143 8.96104 0.857143H0.38961C0.286279 0.857143 0.18718 0.81199 0.114114 0.731617C0.0410482 0.651244 0 0.542236 0 0.428571Z" fill="#54575E" />
</svg>